<?xml version="1.0" encoding="utf-8"?>
<!-- Generator: Adobe Illustrator 24.1.0, SVG Export Plug-In . SVG Version: 6.00 Build 0)  -->
<svg version="1.1" id="Layer_1" xmlns="http://www.w3.org/2000/svg" xmlns:xlink="http://www.w3.org/1999/xlink" x="0px" y="0px"
	 viewBox="0 0 362.1 166.3" style="enable-background:new 0 0 362.1 166.3;" xml:space="preserve">
<style type="text/css">
	.st0{fill:#EF413D;stroke:#EF413D;stroke-width:0.5;}
</style>
<g>
	<path d="M307.7,147.6c-15.5,0-27.2-5-34.8-14.9c-7.6-9.8-11.4-21.8-11.4-35.7c0-13.6,3.8-25.5,11.4-35.5
		c7.6-10.1,19.3-15.2,34.8-15.2s27.2,5.1,34.8,15.2c7.6,10,11.4,21.9,11.4,35.5c0,13.8-3.8,25.8-11.4,35.7
		C334.9,142.6,323.2,147.6,307.7,147.6z M307.6,68.9c-6.5,0-11.3,2.3-14.8,7.1c-3.5,4.8-5.3,11.9-5.3,21c0,9.1,1.8,16.1,5.3,21
		c3.5,4.8,8.3,7.2,14.8,7.2c6.5,0,11.3-2.3,14.8-7.2c3.5-4.9,5.3-11.9,5.3-21c0-9.1-1.8-16.1-5.2-21
		C318.9,71.2,314.1,68.9,307.6,68.9z"/>
</g>
<path d="M48.2,147.6c-14.1,0-24.7-3.2-31.6-9.5c-6.8-6.3-10.3-14.5-10.3-24.4v-1h25.4l0.1,0.9c0.5,4.1,1.5,7,2.9,8.7
	c2.7,3,7.8,4.5,15.2,4.5c4.4,0,7.9-0.7,10.4-2c2.4-1.2,3.5-3.1,3.5-5.5c0-2.4-0.9-4.2-2.8-5.4c-1.4-0.9-6.7-2.9-23.9-7.2
	c-10.2-2.7-17.5-6-21.7-10.1c-4.3-4-6.5-9.9-6.5-17.5c0-8.8,3.3-16.5,9.9-22.9c6.6-6.3,16-9.6,27.8-9.6c11.2,0,20.5,2.4,27.6,7.1
	c7.2,4.8,11.4,13.1,12.4,24.8l0.1,1.1H61.8l-0.1-0.9c-0.3-2.9-1.1-5.3-2.3-6.9c-2.3-3-6.4-4.6-12.2-4.6c-4.8,0-8.2,0.8-10.2,2.3
	c-1.9,1.5-2.8,3.1-2.8,5c0,2.4,0.9,4.1,2.9,5.2c2.2,1.3,10.2,3.5,23.9,6.7c9.4,2.3,16.5,5.9,21.2,10.6c4.7,4.9,7.1,11,7.1,18.2
	c0,9.5-3.4,17.3-10.1,23.3C72.5,144.6,62,147.6,48.2,147.6z"/>
<path d="M118,144.4H92.5V49.3H118V144.4z M118,40.2H92.5V15.7H118V40.2z"/>
<path d="M216.2,147.6c-14.5,0-25.4-4.6-32.2-13.7c-6.8-9-10.3-20.9-10.3-35.2c0-16.1,3.8-28.9,11.4-37.9
	c7.6-9.1,18.2-13.7,31.5-13.7c11.3,0,20.6,2.7,27.9,8.1c7.3,5.4,11.6,15,13,28.5l0.1,1.1h-25.7l-0.1-0.9c-0.4-3.3-1.5-6.3-3.2-9
	c-2.4-3.5-6.1-5.7-11.3-5.7c-7.4,0-12.3,4.3-15.1,12.1c-1.5,4.2-2.2,9.9-2.2,16.9c0,6.7,0.7,12.1,2.2,16.1c2.6,7.4,7.4,11,14.7,11
	c5.1,0,8.7-1.4,10.8-4.2c2.2-2.9,3.5-6.8,4-11.5l0.1-0.9h25.6l-0.1,1.1c-0.6,7.6-3.2,14.8-7.8,21.5
	C241.8,142.1,230.7,147.6,216.2,147.6z"/>
<path d="M159,145.8c-9.7,0-16.6-2.1-20.5-6.4c-2.8-3-4.2-7.5-4.2-13.6V69.5H122V50.1h12.3v-26h24.9v26h14.4v19.3h-14.4v48.2
	c0,4.6,0.7,6,1.1,6.4c0.3,0.3,1.7,1.1,7.7,1.1c0.7,0,1.4,0,2.2,0c0.8,0,1.5-0.1,2.3-0.1l1.1-0.1v20.2l-11.9,0.5
	C160.8,145.7,159.9,145.8,159,145.8z"/>
<g>
	<rect x="47.7" y="130" class="st0" width="1.8" height="32.2"/>
	<rect x="104.6" y="132.7" class="st0" width="1.8" height="29.4"/>
	<rect x="145.3" y="134.1" class="st0" width="1.8" height="28.1"/>
	<rect x="215.5" y="130" class="st0" width="1.8" height="32.2"/>
	<rect x="307" y="130" class="st0" width="1.8" height="32.2"/>
	<g>
		<rect x="47.7" y="33.1" class="st0" width="1.8" height="33.3"/>
		<rect x="47.7" y="70.7" class="st0" width="1.8" height="5.4"/>
		<polygon class="st0" points="49.4,81.5 47.7,81.5 47.7,97.3 45.5,97.3 45.5,99.1 47.7,99.1 47.7,113.9 49.4,113.9 49.4,99.1 
			76.7,99.1 76.7,97.3 49.4,97.3 		"/>
		<rect x="47.7" y="119.1" class="st0" width="1.8" height="5.4"/>
		<rect x="331.4" y="97.3" class="st0" width="29.3" height="1.8"/>
		<rect x="320.7" y="97.3" class="st0" width="5.3" height="1.8"/>
		<rect x="273.1" y="97.3" class="st0" width="5.4" height="1.8"/>
		<rect x="236.2" y="97.3" class="st0" width="31.6" height="1.8"/>
		<rect x="225.7" y="97.3" class="st0" width="5.3" height="1.8"/>
		<rect x="178.1" y="97.3" class="st0" width="5.3" height="1.8"/>
		<rect x="130.6" y="97.3" class="st0" width="5.8" height="1.8"/>
		<polygon class="st0" points="83,99.1 88.3,99.1 88.3,97.3 81,97.3 		"/>
		<rect x="35" y="97.3" class="st0" width="5.3" height="1.8"/>
		<rect x="0.7" y="97.3" class="st0" width="29" height="1.8"/>
		<rect x="307" y="119.1" class="st0" width="1.8" height="6.4"/>
		<polygon class="st0" points="308.8,81.5 307,81.5 307,97.3 283.8,97.3 283.8,99.1 307,99.1 307,113.9 308.8,113.9 308.8,99.1 
			315.4,99.1 315.4,97.3 308.8,97.3 		"/>
		<rect x="307" y="70.7" class="st0" width="1.8" height="5.4"/>
		<rect x="307" y="33.1" class="st0" width="1.8" height="32.3"/>
		<rect x="215.5" y="120.1" class="st0" width="1.8" height="5.4"/>
		<polygon class="st0" points="217.3,81.5 215.5,81.5 215.5,97.3 188.7,97.3 188.7,99.1 215.5,99.1 215.5,113.9 217.3,113.9 
			217.3,99.1 220.3,99.1 220.3,97.3 217.3,97.3 		"/>
		<rect x="215.5" y="70.7" class="st0" width="1.8" height="5.4"/>
		<rect x="215.5" y="33.1" class="st0" width="1.8" height="32.3"/>
		<rect x="145.3" y="124.7" class="st0" width="1.8" height="4.7"/>
		<polygon class="st0" points="147.1,91.9 145.3,91.9 145.3,97.3 141.6,97.3 141.6,99.1 145.3,99.1 145.3,120 147.1,120 147.1,99.1 
			174.9,99.1 174.9,97.3 147.1,97.3 		"/>
		<rect x="145.3" y="82.5" class="st0" width="1.8" height="4.7"/>
		<rect x="145.3" y="49.8" class="st0" width="1.8" height="28.1"/>
		<rect x="145.3" y="40.4" class="st0" width="1.8" height="4.7"/>
		<rect x="145.3" y="7.6" class="st0" width="1.8" height="28.1"/>
		<rect x="104.6" y="122.9" class="st0" width="1.8" height="4.8"/>
		<polygon class="st0" points="106.3,88.5 104.6,88.5 104.6,97.3 93.6,97.3 93.6,99.1 104.6,99.1 104.6,118 106.3,118 106.3,99.1 
			125.3,99.1 125.3,97.3 106.3,97.3 		"/>
		<rect x="104.6" y="78.7" class="st0" width="1.8" height="4.8"/>
		<rect x="104.6" y="44.3" class="st0" width="1.8" height="29.4"/>
		<rect x="104.6" class="st0" width="1.8" height="29.6"/>
	</g>
</g>
</svg>
